<?xml version="1.0" standalone="no"?>
<!DOCTYPE svg PUBLIC "-//W3C//DTD SVG 20010904//EN"
 "http://www.w3.org/TR/2001/REC-SVG-20010904/DTD/svg10.dtd">
<svg version="1.0" xmlns="http://www.w3.org/2000/svg"
 width="222.000000pt" height="222.000000pt" viewBox="0 0 222.000000 222.000000"
 preserveAspectRatio="xMidYMid meet">
<metadata>
Created by potrace 1.16, written by Peter Selinger 2001-2019
</metadata>
<g transform="translate(0.000000,222.000000) scale(0.100000,-0.100000)"
fill="#000000" stroke="none">
<path d="M946 2210 c-356 -57 -670 -288 -829 -611 -162 -330 -149 -727 34
-1040 258 -442 781 -654 1266 -513 415 120 723 472 790 899 86 557 -274 1099
-824 1241 -110 29 -331 40 -437 24z m178 -102 c23 -32 20 -78 -6 -105 -62 -66
-156 29 -102 105 21 31 87 31 108 0z m516 -123 c56 -29 49 -100 -13 -135 -24
-13 -30 -13 -54 0 -55 31 -51 108 7 137 31 16 25 16 60 -2z m-330 -86 c160
-40 327 -146 430 -272 64 -78 143 -239 166 -337 24 -107 22 -272 -5 -375 -80
-302 -307 -524 -609 -596 -72 -18 -109 -20 -212 -17 -107 4 -139 10 -220 37
-132 45 -220 99 -321 200 -100 100 -155 189 -200 322 -44 129 -52 300 -20 431
56 237 199 423 411 536 180 97 380 121 580 71z m471 -18 c16 -16 29 -39 29
-51 0 -28 -52 -80 -80 -80 -22 0 -80 38 -80 53 0 12 81 107 92 107 5 0 23 -13
39 -29z m-1363 -1298 c35 -30 37 -65 7 -101 -43 -51 -106 -41 -128 21 -10 26
9 64 40 81 37 20 56 20 81 -1z m707 -373 c6 -25 12 -30 38 -31 18 -1 35 -1 40
0 15 2 6 -14 -20 -35 -25 -20 -26 -24 -16 -58 13 -42 12 -43 -27 -15 l-28 22
-33 -23 -32 -24 6 26 c4 15 9 32 12 40 3 7 -8 22 -25 33 -31 21 -39 37 -17 34
47 -6 66 2 72 31 4 17 10 30 15 30 5 0 11 -13 15 -30z"/>
<path d="M1000 1824 c-101 -20 -233 -71 -223 -87 3 -6 1 -7 -6 -3 -15 10 -83
-33 -75 -46 4 -7 2 -8 -4 -4 -14 9 -94 -63 -85 -77 3 -5 1 -7 -5 -3 -21 13
-120 -123 -106 -146 4 -7 3 -8 -4 -4 -14 8 -36 -30 -26 -46 4 -6 3 -8 -3 -5
-13 8 -50 -102 -64 -195 -12 -76 -6 -190 13 -267 9 -37 13 -42 20 -25 6 15 7
13 3 -7 -6 -31 13 -91 26 -83 5 3 6 -2 3 -10 -3 -8 7 -36 22 -61 20 -35 29
-43 36 -33 7 9 8 7 4 -7 -6 -23 69 -119 85 -109 5 3 8 0 7 -8 -2 -7 3 -12 10
-10 8 1 11 -2 8 -7 -8 -12 34 -42 47 -34 6 3 7 1 3 -5 -10 -16 105 -79 204
-112 193 -65 416 -41 587 62 l55 33 -50 3 c-38 2 -55 9 -73 28 -23 25 -24 33
-29 207 -5 179 -5 182 -27 185 l-23 3 0 -205 0 -206 -50 0 -50 0 0 195 c0 182
-1 195 -19 205 -11 5 -22 10 -25 10 -3 0 -7 -78 -9 -172 -5 -197 -8 -223 -28
-224 -8 0 -27 -5 -42 -12 -39 -17 -102 -15 -138 4 -49 25 -59 64 -59 233 0
138 -2 151 -19 161 -40 21 -41 16 -41 -195 0 -156 -3 -207 -12 -210 -31 -9
-128 -12 -122 -3 3 5 12 7 20 4 12 -5 14 34 14 239 0 224 -1 244 -17 247 -10
2 14 3 53 3 40 0 70 -3 68 -6 -2 -4 16 -4 40 -2 38 5 48 1 77 -25 l34 -30 5
-174 5 -173 30 0 30 0 3 203 2 202 45 0 c25 0 45 -5 45 -10 0 -7 6 -7 18 -2
24 13 132 22 132 12 0 -5 -8 -7 -17 -4 -14 5 -15 4 -4 -4 9 -7 23 -7 39 -1 28
11 102 8 95 -3 -2 -5 0 -8 5 -8 5 0 17 -15 26 -34 13 -27 16 -68 16 -195 l0
-161 72 0 c64 0 75 3 100 27 28 27 39 51 16 37 -7 -4 -8 -3 -4 5 4 6 11 9 16
6 16 -10 94 128 115 205 7 24 7 24 -9 5 -17 -23 -21 -13 -6 15 7 13 7 21 0 25
-5 3 -10 12 -10 18 0 7 9 1 19 -12 l18 -24 12 65 c19 113 13 223 -21 342 -11
39 -11 40 -19 16 -7 -21 -8 -19 -4 9 4 25 -4 50 -30 101 -57 108 -186 247
-218 234 -8 -3 -18 -1 -22 5 -3 7 0 8 9 5 27 -11 17 4 -18 25 -37 24 -51 27
-40 9 4 -7 3 -8 -5 -4 -6 4 -9 11 -6 16 7 11 -24 22 -37 13 -7 -3 -8 -1 -4 5
4 7 -23 20 -76 38 -64 20 -108 27 -193 29 -60 2 -121 1 -135 -1z m-211 -185
c32 -7 46 -7 51 2 5 7 12 5 21 -9 13 -17 55 -38 70 -35 3 1 6 -5 6 -12 0 -11
-4 -12 -14 -4 -9 8 -13 8 -13 0 0 -19 50 -24 106 -12 65 15 156 46 150 52 -2
2 5 5 17 5 12 1 43 3 69 5 35 2 52 -1 67 -15 21 -19 21 -19 22 5 1 18 3 19 6
6 3 -10 -3 -30 -13 -44 -17 -27 -17 -27 -25 -5 -7 17 -16 22 -46 22 -45 0
-224 -55 -203 -62 8 -3 6 -4 -5 -2 -11 1 -47 0 -80 -4 -76 -9 -97 -5 -91 16 3
9 -4 33 -15 52 l-20 35 3 -40 3 -40 -59 -3 c-91 -4 -106 -21 -18 -22 l72 0 0
-75 0 -75 59 0 c33 0 63 -5 66 -10 4 -6 11 -7 17 -4 7 4 8 2 4 -4 -10 -16 12
-54 26 -46 7 4 8 3 4 -5 -4 -6 11 -43 33 -82 35 -60 39 -74 29 -87 -7 -9 -8
-13 -3 -10 6 4 17 2 25 -4 13 -8 12 -9 -1 -5 -9 3 -22 0 -28 -6 -8 -8 -11 -7
-11 3 0 10 -4 9 -18 -3 -25 -23 -37 -21 -50 8 -7 16 -17 23 -27 19 -8 -3 -15
-1 -15 6 0 6 5 8 10 5 17 -11 11 2 -29 65 l-39 60 -53 -90 c-47 -79 -56 -89
-80 -87 -15 1 -25 5 -23 9 3 4 -9 14 -26 23 -29 15 -30 15 -30 -5 0 -11 -4
-20 -10 -20 -5 0 -10 7 -10 16 0 19 27 48 32 34 2 -6 22 21 45 60 l42 70 -44
0 -45 0 -1 123 c0 67 -3 116 -6 110 -7 -18 -23 -16 -23 1 0 8 9 18 20 21 16 5
20 15 20 56 0 55 2 56 79 38z m719 -241 c-2 -97 -6 -132 -16 -134 -7 -1 -8 0
-2 3 23 11 8 23 -30 23 l-40 0 45 -72 c24 -40 40 -75 34 -76 -5 -2 -7 -8 -4
-12 3 -5 0 -12 -6 -16 -8 -4 -9 -3 -5 4 10 16 -5 15 -30 -2 -22 -15 -66 -18
-58 -4 8 12 -41 89 -51 81 -4 -5 -5 -3 -1 4 9 17 -35 88 -45 72 -4 -8 -3 -16
3 -20 6 -4 7 -12 3 -19 -6 -9 -9 -9 -15 -1 -4 7 -25 -16 -53 -59 -26 -38 -50
-70 -55 -70 -4 0 -23 13 -42 29 -29 25 -32 31 -21 45 7 8 9 21 5 28 -4 7 -3
10 1 6 5 -5 22 15 38 44 28 49 29 52 11 65 -10 7 -13 13 -8 13 6 0 15 -5 21
-11 8 -8 16 -3 28 20 9 17 14 35 11 39 -2 4 27 6 65 4 l69 -4 0 76 0 76 75 0
76 0 -3 -132z"/>
</g>
</svg>
