<?xml version="1.0" standalone="no"?>
<!DOCTYPE svg PUBLIC "-//W3C//DTD SVG 20010904//EN"
 "http://www.w3.org/TR/2001/REC-SVG-20010904/DTD/svg10.dtd">
<svg version="1.0" xmlns="http://www.w3.org/2000/svg"
 width="311.000000pt" height="162.000000pt" viewBox="0 0 311.000000 162.000000"
 preserveAspectRatio="xMidYMid meet">
<metadata>
Created by potrace 1.16, written by Peter Selinger 2001-2019
</metadata>
<g transform="translate(0.000000,162.000000) scale(0.100000,-0.100000)"
fill="#000000" stroke="none">
<path d="M2629 1599 c25 -11 51 -29 58 -39 8 -11 23 -20 34 -20 24 0 37 -29
18 -40 -26 -17 43 -23 135 -12 50 6 124 9 164 5 l72 -6 0 67 0 66 -262 -1
-263 0 44 -20z"/>
<path d="M1560 1440 c-27 -23 -48 -27 -30 -5 8 10 9 15 2 15 -6 0 -15 -7 -20
-16 -5 -10 -29 -26 -52 -38 -24 -12 -51 -32 -59 -46 -10 -15 -11 -21 -3 -16 7
4 12 2 12 -4 0 -7 7 -5 16 4 8 9 23 16 33 16 9 0 22 5 29 12 9 9 12 5 12 -18
0 -28 -4 -31 -70 -53 -66 -23 -74 -23 -172 -12 -99 11 -976 81 -1018 81 -19 0
-20 -5 -18 -102 1 -58 3 -79 5 -48 2 30 6 62 10 70 3 8 5 25 4 38 -3 27 -17
27 304 2 225 -17 359 -28 738 -59 66 -6 124 -15 131 -20 6 -5 58 -13 114 -17
90 -6 102 -9 102 -25 0 -14 7 -19 25 -19 14 0 25 -4 25 -8 0 -5 -55 -10 -121
-11 -67 -1 -124 -3 -128 -5 -3 -2 -25 9 -49 25 -23 16 -42 25 -42 21 0 -4 -16
-14 -35 -21 l-35 -12 0 -234 c0 -155 -4 -236 -11 -240 -6 -4 -8 -14 -5 -22 3
-8 1 -11 -4 -8 -6 3 -10 1 -10 -4 0 -18 -24 -12 -44 10 -13 15 -15 24 -7 32 8
8 11 7 11 -5 0 -8 8 -22 17 -29 15 -13 16 -12 11 9 -4 12 -3 20 0 18 4 -2 6
105 4 239 -3 232 -4 244 -22 250 -11 4 -27 13 -36 22 -9 9 -19 12 -22 7 -4 -5
-20 -14 -37 -19 -30 -10 -30 -11 -31 -85 -1 -73 -1 -73 3 -10 2 36 9 70 15 75
8 7 9 6 4 -2 -4 -7 -4 -46 0 -88 l7 -75 33 0 c24 0 34 -5 34 -15 0 -8 3 -15 8
-15 4 0 8 -18 8 -40 l1 -40 -43 0 -44 0 0 -75 c0 -58 -4 -77 -15 -81 -8 -4
-15 -17 -15 -30 0 -15 -6 -24 -16 -24 -8 0 -12 5 -9 10 3 6 2 10 -4 10 -14 0
-7 30 10 41 11 7 11 9 1 9 -7 0 -10 5 -7 10 3 6 -4 10 -16 10 -22 0 -22 0 -3
15 17 13 17 14 2 15 -20 0 -19 -13 -18 212 l1 156 -28 10 c-15 6 -22 11 -15
11 7 1 22 -4 33 -9 16 -9 19 -23 21 -78 l1 -67 6 65 c5 55 4 68 -12 83 -11 9
-25 17 -33 17 -8 0 -14 5 -14 10 0 6 -7 10 -15 10 -8 0 -15 -4 -15 -9 0 -5
-12 -11 -27 -13 l-28 -3 -5 -197 c-3 -108 -8 -200 -13 -204 -15 -15 -26 13
-30 76 l-3 65 -2 -72 c-1 -44 -6 -73 -13 -73 -5 0 -8 4 -5 9 3 5 3 36 0 70 -5
43 -11 61 -21 61 -8 0 -11 -5 -8 -10 4 -7 -8 -10 -34 -9 l-41 3 0 53 0 53 40
0 c33 0 42 -4 50 -22 6 -16 9 8 9 79 1 91 -1 103 -18 113 -35 18 -81 12 -91
-12 l-9 -23 0 22 c-1 16 6 24 24 29 27 7 92 -2 99 -14 2 -4 7 -59 11 -122 3
-63 8 -117 11 -119 2 -2 4 50 4 117 l0 122 -35 17 c-19 9 -35 20 -35 25 0 4
-7 8 -15 8 -8 0 -15 -4 -15 -8 0 -4 -15 -12 -32 -17 l-33 -10 -1 -100 c0 -69
1 -77 3 -27 7 131 20 75 26 -115 4 -102 8 -187 9 -189 10 -9 98 -13 103 -4 3
5 15 10 26 10 11 0 18 -4 15 -9 -3 -5 1 -11 9 -15 8 -3 15 -10 15 -16 0 -6
-11 -3 -25 6 -20 13 -31 14 -48 6 l-22 -11 23 0 c25 -1 31 -21 5 -21 -14 0
-15 -2 -4 -12 10 -11 15 -9 25 5 15 20 46 13 46 -10 0 -11 -7 -13 -25 -9 -18
5 -25 2 -25 -8 0 -18 -31 -29 -54 -20 -14 5 -15 9 -4 15 9 6 7 9 -9 9 -17 0
-20 -4 -15 -22 4 -17 2 -20 -12 -15 -11 4 -19 1 -23 -11 -13 -35 -51 -43 -77
-16 -9 8 -16 11 -16 5 0 -6 9 -15 20 -21 11 -6 20 -18 20 -27 0 -10 6 -14 20
-10 11 3 23 0 27 -5 3 -7 1 -8 -5 -4 -7 4 -12 1 -12 -8 0 -9 -4 -16 -10 -16
-5 0 -10 4 -10 9 0 13 -59 19 -64 7 -2 -6 -5 15 -5 47 l-1 57 -56 0 c-57 0
-84 14 -76 39 3 8 0 11 -6 7 -6 -3 -12 -1 -14 5 -2 7 -12 7 -30 0 -20 -8 -25
-15 -21 -31 3 -11 2 -20 -3 -19 -5 1 -30 1 -56 0 l-48 -1 0 -55 c0 -51 -2 -55
-23 -55 -13 0 -28 -5 -34 -11 -15 -15 -21 7 -19 79 0 34 -3 64 -9 67 -5 3 5 3
23 0 26 -4 32 -1 32 14 0 11 9 21 21 24 14 4 18 10 13 18 -6 10 -9 10 -12 1
-2 -7 -8 -12 -13 -12 -5 0 -9 103 -9 245 0 231 1 245 19 255 26 13 74 13 106
-2 l25 -11 0 -245 c0 -231 -1 -244 -18 -231 -16 12 -16 12 0 -6 10 -10 20 -17
22 -14 3 3 6 117 6 254 l1 250 -33 15 c-18 8 -39 22 -45 30 -9 10 -15 12 -20
4 -5 -5 -23 -16 -40 -23 l-33 -13 0 -259 0 -259 -24 0 c-21 0 -23 3 -20 43 3
31 2 37 -5 22 -7 -15 -10 -6 -10 38 -1 54 -15 75 -27 42 -9 -23 -26 -18 -19 5
4 12 1 27 -5 35 -10 12 -9 16 4 21 20 8 21 24 1 24 -7 0 -19 -8 -24 -17 -8
-14 -11 -15 -11 -3 0 8 -7 24 -16 35 -14 19 -15 18 -9 -12 3 -20 1 -33 -5 -33
-5 0 -10 5 -10 10 0 6 -5 10 -10 10 -7 0 -7 -6 0 -20 6 -11 16 -17 25 -14 22
9 18 -9 -5 -23 -16 -11 -18 -10 -14 2 5 11 2 13 -10 9 -10 -4 -16 -1 -16 7 0
10 -3 10 -11 2 -6 -6 -19 -9 -28 -5 -14 5 -14 4 -1 -13 9 -11 10 -16 3 -11
-10 6 -13 -85 -13 -438 l0 -446 1555 0 1555 0 0 123 c0 107 -2 124 -18 133
-26 17 -174 18 -184 2 -6 -10 -8 -10 -8 -1 0 7 -6 10 -14 7 -8 -3 -17 0 -21 5
-3 6 -11 8 -17 5 -6 -4 -5 -10 3 -15 10 -6 5 -9 -16 -9 -21 0 -26 3 -16 9 9 6
10 11 2 15 -6 4 -14 0 -17 -8 -3 -9 -10 -16 -16 -16 -5 0 -6 4 -3 10 3 5 -1
10 -10 10 -9 0 -13 -5 -10 -10 3 -5 2 -10 -4 -10 -5 0 -12 4 -15 9 -3 5 -21 9
-40 8 -19 0 -33 -3 -31 -6 2 -4 -8 -7 -21 -7 -13 -1 -21 2 -18 7 3 5 -53 10
-128 11 -191 2 -201 3 -206 17 -3 8 3 11 14 9 13 -2 20 4 22 20 3 20 9 22 67
22 41 0 65 4 69 12 5 10 7 10 12 1 4 -10 55 -13 197 -15 l192 -2 -155 -6 c-85
-4 -165 -8 -178 -9 -13 0 -20 -5 -17 -11 4 -6 113 -10 296 -10 l289 0 0 25 c0
21 -5 25 -28 25 -21 0 -32 8 -45 33 l-18 34 40 41 c23 23 42 35 45 29 2 -7 5
-2 5 11 1 13 -3 21 -8 17 -5 -3 -12 -1 -16 5 -3 5 1 10 9 10 9 0 16 4 16 9 0
14 -32 24 -68 22 l-33 -3 3 48 c3 48 3 48 50 64 34 10 48 20 48 33 0 15 -6 17
-37 12 -96 -16 -93 -14 -82 -41 29 -77 -4 -145 -50 -103 -27 26 -30 103 -4
118 21 12 15 19 -24 30 l-31 9 -7 -72 c-5 -39 -7 -77 -6 -83 1 -8 -5 -10 -15
-6 -13 5 -15 17 -12 59 3 37 1 54 -7 54 -9 0 -11 26 -7 94 4 87 3 93 -16 98
-18 5 -19 12 -16 98 2 51 5 95 7 97 2 2 11 1 20 -3 14 -5 17 -29 20 -152 l3
-147 2 155 2 155 -31 17 c-28 16 -33 16 -60 3 l-29 -16 2 -102 2 -102 3 95 c2
52 7 98 11 102 4 4 6 -28 5 -70 -1 -60 1 -69 7 -42 6 23 7 8 3 -45 -3 -44 -6
-115 -7 -158 0 -42 -5 -77 -10 -77 -5 0 -2 -8 7 -18 16 -17 15 -20 -13 -41
-18 -13 -29 -16 -28 -9 2 8 -6 13 -19 12 -26 -1 -32 30 -8 40 8 3 15 10 15 15
0 6 -7 8 -15 5 -26 -10 -16 15 13 31 l27 16 -28 -6 c-19 -4 -26 -2 -22 5 3 5
12 10 20 10 8 0 17 5 21 11 5 9 -1 10 -20 5 -34 -8 -33 -1 2 19 l27 15 -40 -6
-40 -7 19 21 c10 12 27 24 37 27 11 4 19 10 19 15 0 10 -22 7 -62 -9 -22 -8
-26 -8 -21 4 3 8 12 15 20 15 10 0 13 6 9 16 -4 9 -1 23 6 32 11 13 14 11 19
-9 5 -17 7 -10 8 25 1 47 0 48 -24 43 -25 -4 -25 -4 -8 16 17 20 17 20 -2 14
-17 -6 -18 -5 -4 5 9 7 14 19 11 26 -2 7 0 20 4 30 6 12 10 3 14 -33 l7 -50 1
56 c2 52 -9 79 -32 79 -5 0 -1 -7 10 -15 23 -17 14 -19 -20 -3 -24 10 -24 12
-8 24 25 19 1 17 -39 -3 -19 -10 -42 -16 -51 -15 -10 2 -18 -1 -18 -6 0 -6 -7
-13 -16 -16 -40 -15 12 26 62 50 37 18 51 29 47 40 -5 12 9 14 93 8 103 -7
125 -17 132 -59 6 -32 10 -29 17 15 4 23 5 44 2 46 -3 3 -68 6 -144 7 -116 2
-137 4 -124 15 14 11 13 12 -9 7 l-25 -6 25 15 25 15 -32 1 c-18 0 -33 5 -33
10 0 6 5 10 10 10 6 0 10 5 10 11 0 5 -8 9 -17 8 -35 -3 -45 1 -39 16 3 8 1
15 -4 15 -4 0 -11 -13 -15 -30 -6 -26 -10 -29 -38 -25 -27 4 -28 3 -7 -3 25
-8 42 -42 21 -42 -6 0 -11 4 -11 9 0 5 -26 7 -57 4 -32 -2 -152 3 -268 11
-297 22 -325 26 -325 43 0 7 -7 16 -15 19 -8 4 -15 12 -15 20 0 8 -7 11 -17 8
-14 -5 -15 -4 -4 4 9 6 11 19 7 39 -18 81 -160 142 -216 93z m337 -245 c31 -3
60 -1 70 5 13 8 78 7 231 -2 118 -7 216 -10 218 -6 3 5 11 8 17 8 7 0 6 -4 -3
-10 -11 -7 -7 -10 17 -10 42 0 63 -9 63 -28 0 -13 -3 -12 -20 3 -12 11 -20 13
-20 6 0 -7 -4 -9 -10 -6 -18 11 -32 -5 -19 -22 11 -13 8 -14 -27 -9 l-39 7 41
-18 c35 -15 40 -21 33 -38 -6 -15 -8 -16 -8 -4 -1 12 -8 15 -27 11 -15 -3 -24
-1 -21 4 3 5 -6 10 -20 11 -14 0 -30 6 -35 11 -8 8 -4 9 13 5 22 -6 23 -6 7
10 -17 18 -38 23 -38 9 0 -4 -10 -12 -22 -17 -19 -8 -23 -19 -24 -55 l-2 -45
8 45 c6 41 7 37 8 -32 1 -50 6 -78 13 -78 6 0 9 -6 6 -14 -3 -8 2 -17 11 -21
14 -5 14 -7 2 -15 -11 -7 -9 -11 10 -18 14 -6 36 -15 50 -20 19 -7 31 -6 45 4
10 8 26 14 34 13 9 0 5 -5 -9 -10 -14 -5 -30 -17 -37 -26 -11 -14 -16 -14 -59
1 -60 20 -78 20 -70 1 4 -10 -1 -15 -17 -16 -20 -1 -19 -2 6 -12 37 -15 34
-26 -5 -21 -28 4 -31 3 -17 -8 9 -7 14 -18 12 -25 -2 -6 8 -19 24 -27 35 -19
28 -19 -104 -2 -155 21 -439 17 -475 -6 -15 -10 -42 -17 -61 -16 -18 1 -39 -2
-44 -5 -6 -4 -13 0 -17 8 -13 34 -125 -1 -165 -51 -23 -30 -31 -16 -31 54 l0
47 113 58 c61 32 115 57 120 57 4 0 7 -34 7 -75 0 -84 6 -89 72 -61 18 8 71
19 118 25 l85 9 -90 -5 c-49 -2 -103 -11 -119 -19 -52 -25 -56 -21 -56 56 l0
69 73 4 72 3 -89 2 c-85 2 -92 0 -153 -33 -36 -20 -69 -33 -74 -30 -5 4 -9 0
-10 -7 0 -7 -4 -4 -9 7 -8 18 -9 18 -10 -5 -1 -22 -2 -23 -9 -6 -5 14 -10 16
-15 8 -4 -7 -4 -16 -1 -22 3 -5 2 -10 -4 -10 -6 0 -11 68 -13 184 -2 101 0
182 5 179 4 -2 8 -57 9 -121 l2 -117 6 115 c3 63 7 109 8 103 1 -10 32 -13
115 -13 102 0 238 -11 310 -26 l27 -6 0 -103 c0 -90 -2 -104 -17 -108 -10 -3
16 -5 57 -6 41 -1 126 -4 188 -8 l113 -6 -3 27 c-2 14 -7 26 -11 26 -4 0 -14
0 -22 0 -8 0 -15 -5 -15 -10 0 -6 3 -9 8 -8 4 2 9 -1 12 -7 3 -6 -12 -11 -33
-13 l-38 -3 3 122 c2 89 6 123 16 125 7 1 8 0 2 -3 -5 -2 -10 -38 -10 -79 0
-67 2 -74 20 -74 18 0 20 7 20 58 l0 57 16 -30 c9 -18 13 -46 11 -72 -2 -24
-1 -43 3 -43 4 0 10 37 13 83 6 70 4 84 -10 95 -9 6 -13 12 -7 12 27 -1 33
-20 37 -120 l3 -105 2 108 c2 106 2 108 -23 119 -14 6 -25 15 -25 20 0 4 -7 8
-15 8 -8 0 -15 -4 -15 -9 0 -5 -11 -12 -25 -15 -25 -6 -25 -6 -25 -131 0 -104
-2 -125 -15 -125 -13 0 -15 21 -15 125 0 124 0 126 -25 137 -14 6 -25 15 -25
20 0 4 -7 8 -15 8 -8 0 -15 -4 -15 -9 0 -5 -11 -12 -25 -15 -25 -6 -25 -7 -27
-134 l-2 -127 -3 126 c-4 147 12 130 -145 149 -54 7 -98 16 -98 21 0 5 14 9
30 9 21 0 30 5 30 16 0 12 8 14 43 10 23 -3 65 -8 94 -11z m-567 -190 l40 0 0
44 c0 24 3 42 6 39 7 -8 10 -108 3 -108 -4 0 -3 -19 2 -42 11 -58 11 -78 -1
-78 -5 0 -10 7 -10 15 0 9 -10 15 -22 16 -13 0 -31 2 -40 4 -16 3 -18 -5 -18
-66 0 -65 1 -69 23 -69 53 0 64 -10 63 -50 0 -21 -4 -36 -8 -34 -5 3 -8 1 -8
-5 0 -5 8 -12 18 -14 9 -3 -9 -5 -40 -6 -56 -1 -64 4 -59 33 1 6 3 116 4 245
0 130 2 200 4 156 l4 -81 39 1z m875 -435 c-2 -4 7 -5 20 -2 16 3 25 0 25 -8
0 -9 4 -9 13 -2 6 5 21 6 32 2 16 -5 13 -8 -15 -14 -31 -7 -32 -9 -15 -16 14
-6 15 -9 5 -9 -22 -1 -27 -71 -5 -71 8 0 15 -4 15 -10 0 -5 -7 -7 -15 -4 -12
5 -15 -2 -15 -29 0 -51 9 -67 36 -67 46 0 24 -20 -23 -21 l-48 -1 38 -10 c20
-6 37 -14 37 -19 0 -5 -5 -8 -11 -6 -6 1 -14 -3 -16 -10 -3 -9 7 -11 31 -9 20
1 36 -1 36 -6 0 -11 -61 -10 -79 1 -8 5 -10 15 -6 22 4 8 -3 3 -14 -11 -20
-24 -22 -24 -35 -7 -10 13 -21 16 -40 11 -14 -3 -29 -10 -32 -15 -3 -5 -12 -9
-20 -9 -8 0 -13 4 -10 9 3 4 -6 6 -19 3 -14 -2 -25 -9 -25 -14 0 -6 6 -8 13
-5 8 3 20 1 28 -4 10 -6 2 -9 -23 -9 -21 0 -38 5 -38 10 0 6 -7 10 -15 10 -8
0 -15 -4 -15 -10 0 -5 -19 -10 -42 -11 -32 0 -38 -2 -23 -8 11 -4 -25 -6 -80
-3 -55 2 -121 4 -147 5 -27 0 -48 4 -48 9 0 4 7 8 15 8 8 0 15 4 15 8 0 10
-49 13 -185 12 -54 -1 -211 17 -180 20 61 6 111 5 154 -2 28 -5 49 -4 55 2 15
15 86 13 86 -2 0 -9 3 -8 10 2 8 12 46 15 226 17 119 1 219 5 222 8 3 3 -19 5
-49 5 -31 0 -80 4 -110 10 -30 5 -65 11 -78 13 -21 3 -26 12 -36 59 l-11 55
54 2 c53 1 56 -1 101 -46 54 -56 114 -93 95 -60 -5 9 -4 9 5 1 12 -11 139 -8
151 3 3 2 6 38 7 79 3 68 1 75 -14 72 -10 -2 -17 -10 -15 -17 1 -7 -2 -10 -8
-6 -5 3 -10 1 -10 -5 0 -22 -53 -6 -62 19 -8 22 -7 23 25 18 47 -7 59 3 52 45
-5 33 -4 36 14 31 12 -3 19 -9 16 -13z"/>
<path d="M550 1262 c0 -5 -18 -14 -39 -21 l-40 -11 6 -213 c3 -116 7 -214 9
-216 2 -2 5 81 6 185 1 126 4 164 7 114 3 -41 9 -70 13 -65 3 6 27 9 52 7 l46
-4 0 -54 0 -54 -55 0 -55 0 0 -75 0 -75 54 0 c34 0 55 5 58 13 3 6 6 103 7
213 l2 202 -28 10 c-15 6 -22 11 -15 11 7 1 22 -4 33 -9 18 -10 19 -24 19
-250 l0 -240 -22 -1 -23 -1 23 -6 c13 -4 23 -10 23 -14 -2 -22 1 -25 23 -21
13 3 27 0 30 -6 4 -6 13 -11 19 -11 8 0 8 3 -2 9 -9 6 -10 14 -4 27 5 11 6 44
2 74 l-6 55 -1 -62 c-2 -60 -11 -76 -39 -65 -10 3 -13 64 -13 258 l0 254 -27
13 c-16 6 -32 17 -36 24 -9 15 -27 17 -27 5z"/>
<path d="M293 1233 c-15 -6 -17 -79 -3 -88 6 -3 10 -23 10 -44 l0 -38 55 -10
55 -10 0 88 c0 77 -2 90 -19 99 -20 10 -76 12 -98 3z"/>
<path d="M286 973 c5 -16 9 -63 9 -105 l0 -78 42 0 c23 0 48 -3 57 -6 14 -5
16 5 16 73 0 75 -1 79 -22 80 -54 1 -82 5 -70 10 16 6 15 21 -2 39 -25 24 -39
17 -30 -13z"/>
<path d="M2937 923 l-58 -15 2 -84 c1 -74 4 -84 20 -84 10 0 21 5 25 12 4 7 3
8 -4 4 -7 -4 -12 -3 -12 1 0 5 17 19 38 32 33 20 34 22 10 18 -19 -3 -25 0
-21 10 3 7 9 10 14 7 5 -3 9 -1 9 4 0 11 48 31 71 30 13 -1 17 -11 15 -45 -1
-34 2 -43 16 -43 43 0 48 9 48 92 l0 81 -30 -7 c-70 -14 -96 -17 -75 -7 30 14
-1 11 -68 -6z"/>
</g>
</svg>
